<?xml version="1.0" encoding="utf-8" standalone="no"?>
<!DOCTYPE svg PUBLIC "-//W3C//DTD SVG 1.1//EN"
  "http://www.w3.org/Graphics/SVG/1.1/DTD/svg11.dtd">
<svg xmlns:xlink="http://www.w3.org/1999/xlink" width="907.2pt" height="541.08pt" viewBox="0 0 907.2 541.08" xmlns="http://www.w3.org/2000/svg" version="1.1">
 <metadata>
  <rdf:RDF xmlns:dc="http://purl.org/dc/elements/1.1/" xmlns:cc="http://creativecommons.org/ns#" xmlns:rdf="http://www.w3.org/1999/02/22-rdf-syntax-ns#">
   <cc:Work>
    <dc:type rdf:resource="http://purl.org/dc/dcmitype/StillImage"/>
    <dc:date>2026-05-25T03:10:57.134727</dc:date>
    <dc:format>image/svg+xml</dc:format>
    <dc:creator>
     <cc:Agent>
      <dc:title>Matplotlib v3.10.8, https://matplotlib.org/</dc:title>
     </cc:Agent>
    </dc:creator>
   </cc:Work>
  </rdf:RDF>
 </metadata>
 <defs>
  <style type="text/css">*{stroke-linejoin: round; stroke-linecap: butt}</style>
 </defs>
 <g id="figure_1">
  <g id="patch_1">
   <path d="M 0 541.08 
L 907.2 541.08 
L 907.2 0 
L 0 0 
z
" style="fill: #ffffff"/>
  </g>
  <g id="axes_1">
   <g id="patch_2">
    <path d="M 33.984 144.1368 
L 301.824 144.1368 
L 301.824 59.868 
L 33.984 59.868 
z
" clip-path="url(#pc29aab55dd)" style="fill: #ffffff; stroke-dasharray: 5.18,2.24; stroke-dashoffset: 0; stroke: #000000; stroke-width: 1.4; stroke-linejoin: miter"/>
   </g>
   <g id="patch_3">
    <path d="M 337.536 217.872 
L 533.952 217.872 
L 533.952 59.868 
L 337.536 59.868 
z
" clip-path="url(#pc29aab55dd)" style="fill: #ffffff; stroke-dasharray: 5.18,2.24; stroke-dashoffset: 0; stroke: #000000; stroke-width: 1.4; stroke-linejoin: miter"/>
   </g>
   <g id="patch_4">
    <path d="M 569.664 238.9392 
L 864.288 238.9392 
L 864.288 59.868 
L 569.664 59.868 
z
" clip-path="url(#pc29aab55dd)" style="fill: #ffffff; stroke-dasharray: 5.18,2.24; stroke-dashoffset: 0; stroke: #000000; stroke-width: 1.4; stroke-linejoin: miter"/>
   </g>
   <g id="patch_5">
    <path d="M 167.904 465.4116 
L 757.152 465.4116 
L 757.152 317.9412 
L 167.904 317.9412 
z
" clip-path="url(#pc29aab55dd)" style="fill: #ffffff; stroke-dasharray: 5.18,2.24; stroke-dashoffset: 0; stroke: #000000; stroke-width: 1.4; stroke-linejoin: miter"/>
   </g>
   <g id="patch_6">
    <path d="M 60.768 102.0024 
L 167.904 102.0024 
L 167.904 70.4016 
L 60.768 70.4016 
z
" clip-path="url(#pc29aab55dd)" style="fill: #ffffff; stroke: #000000; stroke-width: 1.6; stroke-linejoin: miter"/>
   </g>
   <g id="patch_7">
    <path d="M 185.76 102.0024 
L 292.896 102.0024 
L 292.896 70.4016 
L 185.76 70.4016 
z
" clip-path="url(#pc29aab55dd)" style="fill: #ffffff; stroke: #000000; stroke-width: 1.6; stroke-linejoin: miter"/>
   </g>
   <g id="patch_8">
    <path d="M 60.768 144.1368 
L 292.896 144.1368 
L 292.896 112.536 
L 60.768 112.536 
z
" clip-path="url(#pc29aab55dd)" style="fill: #ffffff; stroke: #000000; stroke-width: 1.6; stroke-linejoin: miter"/>
   </g>
   <g id="patch_9">
    <path d="M 364.32 112.536 
L 507.168 112.536 
L 507.168 80.9352 
L 364.32 80.9352 
z
" clip-path="url(#pc29aab55dd)" style="fill: #ffffff; stroke: #000000; stroke-width: 1.6; stroke-linejoin: miter"/>
   </g>
   <g id="patch_10">
    <path d="M 364.32 175.7376 
L 507.168 175.7376 
L 507.168 138.87 
L 364.32 138.87 
z
" clip-path="url(#pc29aab55dd)" style="fill: #ffffff; stroke: #000000; stroke-width: 1.6; stroke-linejoin: miter"/>
   </g>
   <g id="patch_11">
    <path d="M 596.448 102.0024 
L 757.152 102.0024 
L 757.152 70.4016 
L 596.448 70.4016 
z
" clip-path="url(#pc29aab55dd)" style="fill: #ffffff; stroke: #000000; stroke-width: 1.6; stroke-linejoin: miter"/>
   </g>
   <g id="patch_12">
    <path d="M 783.936 102.0024 
L 855.36 102.0024 
L 855.36 70.4016 
L 783.936 70.4016 
z
" clip-path="url(#pc29aab55dd)" style="fill: #ffffff; stroke: #000000; stroke-width: 1.6; stroke-linejoin: miter"/>
   </g>
   <g id="patch_13">
    <path d="M 783.936 154.6704 
L 855.36 154.6704 
L 855.36 117.8028 
L 783.936 117.8028 
z
" clip-path="url(#pc29aab55dd)" style="fill: #ffffff; stroke: #000000; stroke-width: 1.6; stroke-linejoin: miter"/>
   </g>
   <g id="patch_14">
    <path d="M 596.448 154.6704 
L 757.152 154.6704 
L 757.152 123.0696 
L 596.448 123.0696 
z
" clip-path="url(#pc29aab55dd)" style="fill: #ffffff; stroke: #000000; stroke-width: 1.6; stroke-linejoin: miter"/>
   </g>
   <g id="patch_15">
    <path d="M 596.448 207.3384 
L 757.152 207.3384 
L 757.152 175.7376 
L 596.448 175.7376 
z
" clip-path="url(#pc29aab55dd)" style="fill: #ffffff; stroke: #000000; stroke-width: 1.6; stroke-linejoin: miter"/>
   </g>
   <g id="patch_16">
    <path d="M 203.616 365.3424 
L 364.32 365.3424 
L 364.32 333.7416 
L 203.616 333.7416 
z
" clip-path="url(#pc29aab55dd)" style="fill: #ffffff; stroke: #000000; stroke-width: 1.6; stroke-linejoin: miter"/>
   </g>
   <g id="patch_17">
    <path d="M 203.616 423.2772 
L 364.32 423.2772 
L 364.32 386.4096 
L 203.616 386.4096 
z
" clip-path="url(#pc29aab55dd)" style="fill: #ffffff; stroke: #000000; stroke-width: 1.6; stroke-linejoin: miter"/>
   </g>
   <g id="patch_18">
    <path d="M 417.888 386.4096 
L 578.592 386.4096 
L 578.592 349.542 
L 417.888 349.542 
z
" clip-path="url(#pc29aab55dd)" style="fill: #ffffff; stroke: #000000; stroke-width: 1.6; stroke-linejoin: miter"/>
   </g>
   <g id="patch_19">
    <path d="M 417.888 444.3444 
L 578.592 444.3444 
L 578.592 412.7436 
L 417.888 412.7436 
z
" clip-path="url(#pc29aab55dd)" style="fill: #ffffff; stroke: #000000; stroke-width: 1.6; stroke-linejoin: miter"/>
   </g>
   <g id="patch_20">
    <path d="M 632.16 444.3444 
L 739.296 444.3444 
L 739.296 412.7436 
L 632.16 412.7436 
z
" clip-path="url(#pc29aab55dd)" style="fill: #ffffff; stroke: #000000; stroke-width: 1.6; stroke-linejoin: miter"/>
   </g>
   <g id="patch_21">
    <path d="M 116.308072 102.33479 
Q 145.585562 107.269463 173.319574 111.943986 
" clip-path="url(#pc29aab55dd)" style="fill: none; stroke: #000000; stroke-width: 1.4; stroke-linecap: round"/>
    <path d="M 168.62403 108.515887 
L 173.319574 111.943986 
L 167.759768 113.643563 
z
" clip-path="url(#pc29aab55dd)" style="stroke: #000000; stroke-width: 1.4; stroke-linecap: round"/>
   </g>
   <g id="patch_22">
    <path d="M 237.355928 102.33479 
Q 208.078438 107.269463 180.344426 111.943986 
" clip-path="url(#pc29aab55dd)" style="fill: none; stroke: #000000; stroke-width: 1.4; stroke-linecap: round"/>
    <path d="M 185.904232 113.643563 
L 180.344426 111.943986 
L 185.03997 108.515887 
z
" clip-path="url(#pc29aab55dd)" style="stroke: #000000; stroke-width: 1.4; stroke-linecap: round"/>
   </g>
   <g id="patch_23">
    <path d="M 435.744 114.538696 
Q 435.744 125.704899 435.744 135.305855 
" clip-path="url(#pc29aab55dd)" style="fill: none; stroke: #000000; stroke-width: 1.4; stroke-linecap: round"/>
    <path d="M 438.344 130.105855 
L 435.744 135.305855 
L 433.144 130.105855 
z
" clip-path="url(#pc29aab55dd)" style="stroke: #000000; stroke-width: 1.4; stroke-linecap: round"/>
   </g>
   <g id="patch_24">
    <path d="M 676.8 104.000595 
Q 676.8 112.536489 676.8 119.507135 
" clip-path="url(#pc29aab55dd)" style="fill: none; stroke: #000000; stroke-width: 1.4; stroke-linecap: round"/>
    <path d="M 679.4 114.307135 
L 676.8 119.507135 
L 674.2 114.307135 
z
" clip-path="url(#pc29aab55dd)" style="stroke: #000000; stroke-width: 1.4; stroke-linecap: round"/>
   </g>
   <g id="patch_25">
    <path d="M 819.648 104.004453 
Q 819.648 109.904796 819.648 114.239891 
" clip-path="url(#pc29aab55dd)" style="fill: none; stroke: #000000; stroke-width: 1.4; stroke-linecap: round"/>
    <path d="M 822.248 109.039891 
L 819.648 114.239891 
L 817.048 109.039891 
z
" clip-path="url(#pc29aab55dd)" style="stroke: #000000; stroke-width: 1.4; stroke-linecap: round"/>
   </g>
   <g id="patch_26">
    <path d="M 781.944855 136.432369 
Q 770.542624 137.553435 760.698128 138.521345 
" clip-path="url(#pc29aab55dd)" style="fill: none; stroke: #000000; stroke-width: 1.4; stroke-linecap: round"/>
    <path d="M 766.12758 140.600059 
L 760.698128 138.521345 
L 765.61877 135.425011 
z
" clip-path="url(#pc29aab55dd)" style="stroke: #000000; stroke-width: 1.4; stroke-linecap: round"/>
   </g>
   <g id="patch_27">
    <path d="M 676.8 156.668595 
Q 676.8 165.204489 676.8 172.175135 
" clip-path="url(#pc29aab55dd)" style="fill: none; stroke: #000000; stroke-width: 1.4; stroke-linecap: round"/>
    <path d="M 679.4 166.975135 
L 676.8 172.175135 
L 674.2 166.975135 
z
" clip-path="url(#pc29aab55dd)" style="stroke: #000000; stroke-width: 1.4; stroke-linecap: round"/>
   </g>
   <g id="patch_28">
    <path d="M 283.968 367.340595 
Q 283.968 375.876489 283.968 382.847135 
" clip-path="url(#pc29aab55dd)" style="fill: none; stroke: #000000; stroke-width: 1.4; stroke-linecap: round"/>
    <path d="M 286.568 377.647135 
L 283.968 382.847135 
L 281.368 377.647135 
z
" clip-path="url(#pc29aab55dd)" style="stroke: #000000; stroke-width: 1.4; stroke-linecap: round"/>
   </g>
   <g id="patch_29">
    <path d="M 366.213059 350.193439 
Q 391.10591 358.759557 414.518696 366.816356 
" clip-path="url(#pc29aab55dd)" style="fill: none; stroke: #000000; stroke-width: 1.4; stroke-linecap: round"/>
    <path d="M 410.447704 362.665811 
L 414.518696 366.816356 
L 408.755664 367.582822 
z
" clip-path="url(#pc29aab55dd)" style="stroke: #000000; stroke-width: 1.4; stroke-linecap: round"/>
   </g>
   <g id="patch_30">
    <path d="M 498.24 388.412296 
Q 498.24 399.578499 498.24 409.179455 
" clip-path="url(#pc29aab55dd)" style="fill: none; stroke: #000000; stroke-width: 1.4; stroke-linecap: round"/>
    <path d="M 500.84 403.979455 
L 498.24 409.179455 
L 495.64 403.979455 
z
" clip-path="url(#pc29aab55dd)" style="stroke: #000000; stroke-width: 1.4; stroke-linecap: round"/>
   </g>
   <g id="patch_31">
    <path d="M 580.589684 428.544 
Q 605.375478 428.544 628.596025 428.544 
" clip-path="url(#pc29aab55dd)" style="fill: none; stroke: #000000; stroke-width: 1.4; stroke-linecap: round"/>
    <path d="M 623.396025 425.944 
L 628.596025 428.544 
L 623.396025 431.144 
z
" clip-path="url(#pc29aab55dd)" style="stroke: #000000; stroke-width: 1.4; stroke-linecap: round"/>
   </g>
   <g id="patch_32">
    <path d="M 176.832 270.54 
Q 230.4 302.1408 282.619853 332.946302 
" clip-path="url(#pc29aab55dd)" style="fill: none; stroke: #000000; stroke-width: 1.4; stroke-linecap: round"/>
    <path d="M 279.462148 328.064817 
L 282.619853 332.946302 
L 276.820042 332.543575 
z
" clip-path="url(#pc29aab55dd)" style="stroke: #000000; stroke-width: 1.4; stroke-linecap: round"/>
   </g>
   <g id="patch_33">
    <path d="M 435.744 270.54 
Q 466.992 310.041 497.268898 348.314417 
" clip-path="url(#pc29aab55dd)" style="fill: none; stroke: #000000; stroke-width: 1.4; stroke-linecap: round"/>
    <path d="M 496.081854 342.623114 
L 497.268898 348.314417 
L 492.003629 345.84927 
z
" clip-path="url(#pc29aab55dd)" style="stroke: #000000; stroke-width: 1.4; stroke-linecap: round"/>
   </g>
   <g id="patch_34">
    <path d="M 676.8 270.54 
Q 614.304 310.041 553.131114 348.705717 
" clip-path="url(#pc29aab55dd)" style="fill: none; stroke: #000000; stroke-width: 1.4; stroke-linecap: round"/>
    <path d="M 558.91584 348.125251 
L 553.131114 348.705717 
L 556.137577 343.729656 
z
" clip-path="url(#pc29aab55dd)" style="stroke: #000000; stroke-width: 1.4; stroke-linecap: round"/>
   </g>
   <g id="line2d_1">
    <path d="M 176.832 144.1368 
L 176.832 270.54 
" clip-path="url(#pc29aab55dd)" style="fill: none; stroke: #000000; stroke-width: 1.4; stroke-linecap: square"/>
   </g>
   <g id="line2d_2">
    <path d="M 435.744 175.7376 
L 435.744 270.54 
" clip-path="url(#pc29aab55dd)" style="fill: none; stroke: #000000; stroke-width: 1.4; stroke-linecap: square"/>
   </g>
   <g id="line2d_3">
    <path d="M 676.8 207.3384 
L 676.8 270.54 
" clip-path="url(#pc29aab55dd)" style="fill: none; stroke: #000000; stroke-width: 1.4; stroke-linecap: square"/>
   </g>
   <g id="text_1">
    <text style="font-weight: 700; font-size: 18px; font-family: 'Microsoft YaHei', sans-serif; text-anchor: middle" x="453.6" y="27.957431" transform="rotate(-0 453.6 27.957431)">src 控制部署架构：键盘控制与 Diffusion Servo</text>
   </g>
   <g id="text_2">
    <g id="patch_35">
     <path d="M 43.0476 55.72452 
L 123.3476 55.72452 
L 123.3476 40.896864 
L 43.0476 40.896864 
z
" style="fill: #ffffff"/>
    </g>
    <text style="font-weight: 700; font-size: 11px; font-family: 'Microsoft YaHei', sans-serif; text-anchor: start" x="44.6976" y="51.339989" transform="rotate(-0 44.6976 51.339989)">控制栈启动配置</text>
   </g>
   <g id="text_3">
    <g id="patch_36">
     <path d="M 346.5996 55.72452 
L 448.339287 55.72452 
L 448.339287 40.896864 
L 346.5996 40.896864 
z
" style="fill: #ffffff"/>
    </g>
    <text style="font-weight: 700; font-size: 11px; font-family: 'Microsoft YaHei', sans-serif; text-anchor: start" x="348.2496" y="51.339989" transform="rotate(-0 348.2496 51.339989)">键盘 / MoveIt 路径</text>
   </g>
   <g id="text_4">
    <g id="patch_37">
     <path d="M 578.7276 55.72452 
L 693.232444 55.72452 
L 693.232444 40.896864 
L 578.7276 40.896864 
z
" style="fill: #ffffff"/>
    </g>
    <text style="font-weight: 700; font-size: 11px; font-family: 'Microsoft YaHei', sans-serif; text-anchor: start" x="580.3776" y="51.339989" transform="rotate(-0 580.3776 51.339989)">Diffusion Servo 路径</text>
   </g>
   <g id="text_5">
    <g id="patch_38">
     <path d="M 176.9676 313.79772 
L 318.211037 313.79772 
L 318.211037 298.428657 
L 176.9676 298.428657 
z
" style="fill: #ffffff"/>
    </g>
    <text style="font-weight: 700; font-size: 11px; font-family: 'Microsoft YaHei', sans-serif; text-anchor: start" x="178.6176" y="309.268814" transform="rotate(-0 178.6176 309.268814)">ros2_control 与硬件执行层</text>
   </g>
   <g id="text_6">
    <text style="font-size: 9.5px; font-family: 'Microsoft YaHei', sans-serif" transform="translate(74.208148 82.859187)">robot_description</text>
    <text style="font-size: 9.5px; font-family: 'Microsoft YaHei', sans-serif" transform="translate(72.568656 94.777234)">URDF / controllers</text>
   </g>
   <g id="text_7">
    <text style="font-size: 9.5px; font-family: 'Microsoft YaHei', sans-serif" transform="translate(207.659602 82.919305)">MoveIt config</text>
    <text style="font-size: 9.5px; font-family: 'Microsoft YaHei', sans-serif" transform="translate(198.340695 94.828445)">SRDF / kinematics</text>
   </g>
   <g id="text_8">
    <text style="font-size: 9.5px; font-family: 'Microsoft YaHei', sans-serif" transform="translate(120.987586 124.993587)">robot_moveit.launch.xml</text>
    <text style="font-size: 9.5px; font-family: 'Microsoft YaHei', sans-serif" transform="translate(153.082 136.911634)">启动控制栈</text>
   </g>
   <g id="text_9">
    <text style="font-size: 9.5px; font-family: 'Microsoft YaHei', sans-serif" transform="translate(381.666734 93.365327)">robot_keyboard_control</text>
    <text style="font-size: 9.5px; font-family: 'Microsoft YaHei', sans-serif" transform="translate(400.245914 105.283373)">joint / cartesian</text>
   </g>
   <g id="text_10">
    <text style="font-size: 9.5px; font-family: 'Microsoft YaHei', sans-serif" transform="translate(393.618922 153.891407)">robot_commander</text>
    <text style="font-size: 9.5px; font-family: 'Microsoft YaHei', sans-serif" transform="translate(388.658883 165.948614)">MoveGroupInterface</text>
   </g>
   <g id="text_11">
    <text style="font-size: 9.5px; font-family: 'Microsoft YaHei', sans-serif" transform="translate(623.254141 82.859187)">servo_control.launch.py</text>
    <text style="font-size: 9.5px; font-family: 'Microsoft YaHei', sans-serif" transform="translate(646.468281 94.777234)">MoveIt Servo</text>
   </g>
   <g id="text_12">
    <text style="font-size: 9.5px; font-family: 'Microsoft YaHei', sans-serif; text-anchor: middle" x="819.648" y="88.818211" transform="rotate(-0 819.648 88.818211)">latest.pt</text>
   </g>
   <g id="text_13">
    <text style="font-size: 9.5px; font-family: 'Microsoft YaHei', sans-serif" transform="translate(799.714328 132.893787)">diffusion</text>
    <text style="font-size: 9.5px; font-family: 'Microsoft YaHei', sans-serif" transform="translate(793.439133 144.748006)">servo_node</text>
   </g>
   <g id="text_14">
    <text style="font-size: 9.5px; font-family: 'Microsoft YaHei', sans-serif" transform="translate(657.8 135.527187)">安全转换</text>
    <text style="font-size: 9.5px; font-family: 'Microsoft YaHei', sans-serif" transform="translate(629.12707 147.381406)">clip / dry_run / estop</text>
   </g>
   <g id="text_15">
    <text style="font-size: 9.5px; font-family: 'Microsoft YaHei', sans-serif" transform="translate(651.460977 187.95342)">right_servo</text>
    <text style="font-size: 9.5px; font-family: 'Microsoft YaHei', sans-serif" transform="translate(647.093945 200.30008)">JointJog 接口</text>
   </g>
   <g id="text_16">
    <text style="font-size: 9.5px; font-family: 'Microsoft YaHei', sans-serif" transform="translate(239.758117 346.167273)">controller_manager</text>
    <text style="font-size: 9.5px; font-family: 'Microsoft YaHei', sans-serif" transform="translate(242.144992 358.08532)">ros2_control_node</text>
   </g>
   <g id="text_17">
    <text style="font-size: 9.5px; font-family: 'Microsoft YaHei', sans-serif" transform="translate(231.598508 395.541564)">joint_state_broadcaster</text>
    <text style="font-size: 9.5px; font-family: 'Microsoft YaHei', sans-serif" transform="translate(256.344523 407.459611)">/joint_states</text>
    <text style="font-size: 9.5px; font-family: 'Microsoft YaHei', sans-serif" transform="translate(245.968 419.377658)">供键盘与策略订阅</text>
   </g>
   <g id="text_18">
    <text style="font-size: 9.5px; font-family: 'Microsoft YaHei', sans-serif" transform="translate(465.032305 364.60998)">JointTrajectory</text>
    <text style="font-size: 9.5px; font-family: 'Microsoft YaHei', sans-serif" transform="translate(473.306211 376.51912)">Controllers</text>
   </g>
   <g id="text_19">
    <text style="font-size: 9.5px; font-family: 'Microsoft YaHei', sans-serif" transform="translate(462.361172 425.104146)">robot_hardware</text>
    <text style="font-size: 9.5px; font-family: 'Microsoft YaHei', sans-serif" transform="translate(462.025703 437.161354)">SystemInterface</text>
   </g>
   <g id="text_20">
    <text style="font-size: 9.5px; font-family: 'Microsoft YaHei', sans-serif" transform="translate(667.150305 425.233102)">CAN-FD</text>
    <text style="font-size: 9.5px; font-family: 'Microsoft YaHei', sans-serif" transform="translate(666.728 437.08732)">电机驱动</text>
   </g>
   <g id="text_21">
    <g id="patch_39">
     <path d="M 396.837906 117.49776 
L 474.650094 117.49776 
L 474.650094 106.040026 
L 396.837906 106.040026 
z
" style="fill: #ffffff"/>
    </g>
    <text style="font-size: 8.5px; font-family: 'Microsoft YaHei', sans-serif; text-anchor: middle; fill: #303030" x="435.744" y="114.109713" transform="rotate(-0 435.744 114.109713)">关节/夹爪/位姿命令</text>
   </g>
   <g id="text_22">
    <g id="patch_40">
     <path d="M 167.057 263.9148 
L 186.607 263.9148 
L 186.607 252.457066 
L 167.057 252.457066 
z
" style="fill: #ffffff"/>
    </g>
    <text style="font-size: 8.5px; font-family: 'Microsoft YaHei', sans-serif; text-anchor: middle; fill: #303030" x="176.832" y="260.526753" transform="rotate(-0 176.832 260.526753)">启动</text>
   </g>
   <g id="text_23">
    <g id="patch_41">
     <path d="M 417.469 263.9148 
L 454.019 263.9148 
L 454.019 252.457066 
L 417.469 252.457066 
z
" style="fill: #ffffff"/>
    </g>
    <text style="font-size: 8.5px; font-family: 'Microsoft YaHei', sans-serif; text-anchor: middle; fill: #303030" x="435.744" y="260.526753" transform="rotate(-0 435.744 260.526753)">规划执行</text>
   </g>
   <g id="text_24">
    <g id="patch_42">
     <path d="M 658.703633 263.9148 
L 694.896367 263.9148 
L 694.896367 252.457066 
L 658.703633 252.457066 
z
" style="fill: #ffffff"/>
    </g>
    <text style="font-size: 8.5px; font-family: 'Microsoft YaHei', sans-serif; text-anchor: middle; fill: #303030" x="676.8" y="260.477612" transform="rotate(-0 676.8 260.477612)">JointJog</text>
   </g>
  </g>
 </g>
 <defs>
  <clipPath id="pc29aab55dd">
   <rect x="7.2" y="7.2" width="892.8" height="526.68"/>
  </clipPath>
 </defs>
</svg>
